solid CATIA STL
  facet normal  0.000000e+000  0.000000e+000  9.999999e-001
    outer loop
      vertex -9.754516e-002  4.903926e-001  4.000000e+001
      vertex  9.754516e-002  4.903926e-001  4.000000e+001
      vertex  3.061617e-017  5.000000e-001  4.000000e+001
    endloop
  endfacet
  facet normal  -0.000000e+000  0.000000e+000  1.000000e+000
    outer loop
      vertex  9.754516e-002  4.903926e-001  4.000000e+001
      vertex -9.754516e-002  4.903926e-001  4.000000e+001
      vertex  1.913417e-001  4.619398e-001  4.000000e+001
    endloop
  endfacet
  facet normal  0.000000e+000  0.000000e+000  1.000000e+000
    outer loop
      vertex  1.913417e-001  4.619398e-001  4.000000e+001
      vertex -9.754516e-002  4.903926e-001  4.000000e+001
      vertex -1.913417e-001  4.619398e-001  4.000000e+001
    endloop
  endfacet
  facet normal  -0.000000e+000  0.000000e+000  1.000000e+000
    outer loop
      vertex  1.913417e-001  4.619398e-001  4.000000e+001
      vertex -1.913417e-001  4.619398e-001  4.000000e+001
      vertex  2.777851e-001  4.157348e-001  4.000000e+001
    endloop
  endfacet
  facet normal  0.000000e+000  0.000000e+000  9.999999e-001
    outer loop
      vertex  2.777851e-001  4.157348e-001  4.000000e+001
      vertex -1.913417e-001  4.619398e-001  4.000000e+001
      vertex -2.777851e-001  4.157348e-001  4.000000e+001
    endloop
  endfacet
  facet normal  -0.000000e+000  0.000000e+000  1.000000e+000
    outer loop
      vertex  2.777851e-001  4.157348e-001  4.000000e+001
      vertex -2.777851e-001  4.157348e-001  4.000000e+001
      vertex  3.535534e-001  3.535534e-001  4.000000e+001
    endloop
  endfacet
  facet normal  0.000000e+000  0.000000e+000  1.000000e+000
    outer loop
      vertex  3.535534e-001  3.535534e-001  4.000000e+001
      vertex -2.777851e-001  4.157348e-001  4.000000e+001
      vertex -3.535534e-001  3.535534e-001  4.000000e+001
    endloop
  endfacet
  facet normal  -0.000000e+000  0.000000e+000  1.000000e+000
    outer loop
      vertex  3.535534e-001  3.535534e-001  4.000000e+001
      vertex -3.535534e-001  3.535534e-001  4.000000e+001
      vertex  4.157348e-001  2.777851e-001  4.000000e+001
    endloop
  endfacet
  facet normal  0.000000e+000  0.000000e+000  1.000000e+000
    outer loop
      vertex  4.157348e-001  2.777851e-001  4.000000e+001
      vertex -3.535534e-001  3.535534e-001  4.000000e+001
      vertex -4.157348e-001  2.777851e-001  4.000000e+001
    endloop
  endfacet
  facet normal  -0.000000e+000  0.000000e+000  1.000000e+000
    outer loop
      vertex  4.157348e-001  2.777851e-001  4.000000e+001
      vertex -4.157348e-001  2.777851e-001  4.000000e+001
      vertex  4.619398e-001  1.913417e-001  4.000000e+001
    endloop
  endfacet
  facet normal  0.000000e+000  0.000000e+000  1.000000e+000
    outer loop
      vertex  4.619398e-001  1.913417e-001  4.000000e+001
      vertex -4.157348e-001  2.777851e-001  4.000000e+001
      vertex -4.619398e-001  1.913417e-001  4.000000e+001
    endloop
  endfacet
  facet normal  -0.000000e+000  0.000000e+000  1.000000e+000
    outer loop
      vertex  4.619398e-001  1.913417e-001  4.000000e+001
      vertex -4.619398e-001  1.913417e-001  4.000000e+001
      vertex  4.903926e-001  9.754516e-002  4.000000e+001
    endloop
  endfacet
  facet normal  0.000000e+000  0.000000e+000  1.000000e+000
    outer loop
      vertex  4.903926e-001  9.754516e-002  4.000000e+001
      vertex -4.619398e-001  1.913417e-001  4.000000e+001
      vertex -4.903926e-001  9.754516e-002  4.000000e+001
    endloop
  endfacet
  facet normal  -0.000000e+000  0.000000e+000  1.000000e+000
    outer loop
      vertex  4.903926e-001  9.754516e-002  4.000000e+001
      vertex -4.903926e-001  9.754516e-002  4.000000e+001
      vertex  5.000000e-001  0.000000e+000  4.000000e+001
    endloop
  endfacet
  facet normal  0.000000e+000  0.000000e+000  9.999999e-001
    outer loop
      vertex  5.000000e-001  0.000000e+000  4.000000e+001
      vertex -4.903926e-001  9.754516e-002  4.000000e+001
      vertex -5.000000e-001  6.123234e-017  4.000000e+001
    endloop
  endfacet
  facet normal  0.000000e+000  0.000000e+000  9.999999e-001
    outer loop
      vertex  5.000000e-001  0.000000e+000  4.000000e+001
      vertex -5.000000e-001  6.123234e-017  4.000000e+001
      vertex  4.903926e-001 -9.754516e-002  4.000000e+001
    endloop
  endfacet
  facet normal  0.000000e+000  0.000000e+000  1.000000e+000
    outer loop
      vertex  4.903926e-001 -9.754516e-002  4.000000e+001
      vertex -5.000000e-001  6.123234e-017  4.000000e+001
      vertex -4.903926e-001 -9.754516e-002  4.000000e+001
    endloop
  endfacet
  facet normal  -0.000000e+000  0.000000e+000  1.000000e+000
    outer loop
      vertex  4.903926e-001 -9.754516e-002  4.000000e+001
      vertex -4.903926e-001 -9.754516e-002  4.000000e+001
      vertex  4.619398e-001 -1.913417e-001  4.000000e+001
    endloop
  endfacet
  facet normal  0.000000e+000  0.000000e+000  1.000000e+000
    outer loop
      vertex  4.619398e-001 -1.913417e-001  4.000000e+001
      vertex -4.903926e-001 -9.754516e-002  4.000000e+001
      vertex -4.619398e-001 -1.913417e-001  4.000000e+001
    endloop
  endfacet
  facet normal  -0.000000e+000  0.000000e+000  1.000000e+000
    outer loop
      vertex  4.619398e-001 -1.913417e-001  4.000000e+001
      vertex -4.619398e-001 -1.913417e-001  4.000000e+001
      vertex  4.157348e-001 -2.777851e-001  4.000000e+001
    endloop
  endfacet
  facet normal  0.000000e+000  0.000000e+000  1.000000e+000
    outer loop
      vertex  4.157348e-001 -2.777851e-001  4.000000e+001
      vertex -4.619398e-001 -1.913417e-001  4.000000e+001
      vertex -4.157348e-001 -2.777851e-001  4.000000e+001
    endloop
  endfacet
  facet normal  -0.000000e+000  0.000000e+000  1.000000e+000
    outer loop
      vertex  4.157348e-001 -2.777851e-001  4.000000e+001
      vertex -4.157348e-001 -2.777851e-001  4.000000e+001
      vertex  3.535534e-001 -3.535534e-001  4.000000e+001
    endloop
  endfacet
  facet normal  0.000000e+000  0.000000e+000  1.000000e+000
    outer loop
      vertex  3.535534e-001 -3.535534e-001  4.000000e+001
      vertex -4.157348e-001 -2.777851e-001  4.000000e+001
      vertex -3.535534e-001 -3.535534e-001  4.000000e+001
    endloop
  endfacet
  facet normal  -0.000000e+000  0.000000e+000  1.000000e+000
    outer loop
      vertex  3.535534e-001 -3.535534e-001  4.000000e+001
      vertex -3.535534e-001 -3.535534e-001  4.000000e+001
      vertex  2.777851e-001 -4.157348e-001  4.000000e+001
    endloop
  endfacet
  facet normal  0.000000e+000  0.000000e+000  1.000000e+000
    outer loop
      vertex  2.777851e-001 -4.157348e-001  4.000000e+001
      vertex -3.535534e-001 -3.535534e-001  4.000000e+001
      vertex -2.777851e-001 -4.157348e-001  4.000000e+001
    endloop
  endfacet
  facet normal  -0.000000e+000  0.000000e+000  9.999999e-001
    outer loop
      vertex  2.777851e-001 -4.157348e-001  4.000000e+001
      vertex -2.777851e-001 -4.157348e-001  4.000000e+001
      vertex  1.913417e-001 -4.619398e-001  4.000000e+001
    endloop
  endfacet
  facet normal  0.000000e+000  0.000000e+000  1.000000e+000
    outer loop
      vertex  1.913417e-001 -4.619398e-001  4.000000e+001
      vertex -2.777851e-001 -4.157348e-001  4.000000e+001
      vertex -1.913417e-001 -4.619398e-001  4.000000e+001
    endloop
  endfacet
  facet normal  -0.000000e+000  0.000000e+000  1.000000e+000
    outer loop
      vertex  1.913417e-001 -4.619398e-001  4.000000e+001
      vertex -1.913417e-001 -4.619398e-001  4.000000e+001
      vertex  9.754516e-002 -4.903926e-001  4.000000e+001
    endloop
  endfacet
  facet normal  0.000000e+000  0.000000e+000  1.000000e+000
    outer loop
      vertex  9.754516e-002 -4.903926e-001  4.000000e+001
      vertex -1.913417e-001 -4.619398e-001  4.000000e+001
      vertex -9.754516e-002 -4.903926e-001  4.000000e+001
    endloop
  endfacet
  facet normal  -0.000000e+000  0.000000e+000  9.999999e-001
    outer loop
      vertex  9.754516e-002 -4.903926e-001  4.000000e+001
      vertex -9.754516e-002 -4.903926e-001  4.000000e+001
      vertex -9.184851e-017 -5.000000e-001  4.000000e+001
    endloop
  endfacet
  facet normal  0.000000e+000  0.000000e+000 -9.999999e-001
    outer loop
      vertex  3.061617e-017  5.000000e-001  0.000000e+000
      vertex  9.754516e-002  4.903926e-001  0.000000e+000
      vertex -9.754516e-002  4.903926e-001  0.000000e+000
    endloop
  endfacet
  facet normal  0.000000e+000  0.000000e+000 -9.999999e-001
    outer loop
      vertex -9.184851e-017 -5.000000e-001  0.000000e+000
      vertex -9.754516e-002 -4.903926e-001  0.000000e+000
      vertex  9.754516e-002 -4.903926e-001  0.000000e+000
    endloop
  endfacet
  facet normal  0.000000e+000  0.000000e+000 -1.000000e+000
    outer loop
      vertex  9.754516e-002 -4.903926e-001  0.000000e+000
      vertex -9.754516e-002 -4.903926e-001  0.000000e+000
      vertex -1.913417e-001 -4.619398e-001  0.000000e+000
    endloop
  endfacet
  facet normal  0.000000e+000  0.000000e+000 -1.000000e+000
    outer loop
      vertex  9.754516e-002 -4.903926e-001  0.000000e+000
      vertex -1.913417e-001 -4.619398e-001  0.000000e+000
      vertex  1.913417e-001 -4.619398e-001  0.000000e+000
    endloop
  endfacet
  facet normal  0.000000e+000  0.000000e+000 -1.000000e+000
    outer loop
      vertex  1.913417e-001 -4.619398e-001  0.000000e+000
      vertex -1.913417e-001 -4.619398e-001  0.000000e+000
      vertex -2.777851e-001 -4.157348e-001  0.000000e+000
    endloop
  endfacet
  facet normal  0.000000e+000  0.000000e+000 -9.999999e-001
    outer loop
      vertex  1.913417e-001 -4.619398e-001  0.000000e+000
      vertex -2.777851e-001 -4.157348e-001  0.000000e+000
      vertex  2.777851e-001 -4.157348e-001  0.000000e+000
    endloop
  endfacet
  facet normal  0.000000e+000  0.000000e+000 -1.000000e+000
    outer loop
      vertex  2.777851e-001 -4.157348e-001  0.000000e+000
      vertex -2.777851e-001 -4.157348e-001  0.000000e+000
      vertex -3.535534e-001 -3.535534e-001  0.000000e+000
    endloop
  endfacet
  facet normal  0.000000e+000  0.000000e+000 -1.000000e+000
    outer loop
      vertex  2.777851e-001 -4.157348e-001  0.000000e+000
      vertex -3.535534e-001 -3.535534e-001  0.000000e+000
      vertex  3.535534e-001 -3.535534e-001  0.000000e+000
    endloop
  endfacet
  facet normal  0.000000e+000  0.000000e+000 -1.000000e+000
    outer loop
      vertex  3.535534e-001 -3.535534e-001  0.000000e+000
      vertex -3.535534e-001 -3.535534e-001  0.000000e+000
      vertex -4.157348e-001 -2.777851e-001  0.000000e+000
    endloop
  endfacet
  facet normal  0.000000e+000  0.000000e+000 -1.000000e+000
    outer loop
      vertex  3.535534e-001 -3.535534e-001  0.000000e+000
      vertex -4.157348e-001 -2.777851e-001  0.000000e+000
      vertex  4.157348e-001 -2.777851e-001  0.000000e+000
    endloop
  endfacet
  facet normal  0.000000e+000  0.000000e+000 -1.000000e+000
    outer loop
      vertex  4.157348e-001 -2.777851e-001  0.000000e+000
      vertex -4.157348e-001 -2.777851e-001  0.000000e+000
      vertex -4.619398e-001 -1.913417e-001  0.000000e+000
    endloop
  endfacet
  facet normal  0.000000e+000  0.000000e+000 -1.000000e+000
    outer loop
      vertex  4.157348e-001 -2.777851e-001  0.000000e+000
      vertex -4.619398e-001 -1.913417e-001  0.000000e+000
      vertex  4.619398e-001 -1.913417e-001  0.000000e+000
    endloop
  endfacet
  facet normal  0.000000e+000  0.000000e+000 -1.000000e+000
    outer loop
      vertex  4.619398e-001 -1.913417e-001  0.000000e+000
      vertex -4.619398e-001 -1.913417e-001  0.000000e+000
      vertex -4.903926e-001 -9.754516e-002  0.000000e+000
    endloop
  endfacet
  facet normal  0.000000e+000  0.000000e+000 -1.000000e+000
    outer loop
      vertex  4.619398e-001 -1.913417e-001  0.000000e+000
      vertex -4.903926e-001 -9.754516e-002  0.000000e+000
      vertex  4.903926e-001 -9.754516e-002  0.000000e+000
    endloop
  endfacet
  facet normal  0.000000e+000  0.000000e+000 -1.000000e+000
    outer loop
      vertex  4.903926e-001 -9.754516e-002  0.000000e+000
      vertex -4.903926e-001 -9.754516e-002  0.000000e+000
      vertex -5.000000e-001  6.123234e-017  0.000000e+000
    endloop
  endfacet
  facet normal  0.000000e+000  0.000000e+000 -9.999999e-001
    outer loop
      vertex  4.903926e-001 -9.754516e-002  0.000000e+000
      vertex -5.000000e-001  6.123234e-017  0.000000e+000
      vertex  5.000000e-001  0.000000e+000  0.000000e+000
    endloop
  endfacet
  facet normal  0.000000e+000  0.000000e+000 -9.999999e-001
    outer loop
      vertex  5.000000e-001  0.000000e+000  0.000000e+000
      vertex -5.000000e-001  6.123234e-017  0.000000e+000
      vertex -4.903926e-001  9.754516e-002  0.000000e+000
    endloop
  endfacet
  facet normal  0.000000e+000  0.000000e+000 -1.000000e+000
    outer loop
      vertex  5.000000e-001  0.000000e+000  0.000000e+000
      vertex -4.903926e-001  9.754516e-002  0.000000e+000
      vertex  4.903926e-001  9.754516e-002  0.000000e+000
    endloop
  endfacet
  facet normal  0.000000e+000  0.000000e+000 -1.000000e+000
    outer loop
      vertex  4.903926e-001  9.754516e-002  0.000000e+000
      vertex -4.903926e-001  9.754516e-002  0.000000e+000
      vertex -4.619398e-001  1.913417e-001  0.000000e+000
    endloop
  endfacet
  facet normal  0.000000e+000  0.000000e+000 -1.000000e+000
    outer loop
      vertex  4.903926e-001  9.754516e-002  0.000000e+000
      vertex -4.619398e-001  1.913417e-001  0.000000e+000
      vertex  4.619398e-001  1.913417e-001  0.000000e+000
    endloop
  endfacet
  facet normal  0.000000e+000  0.000000e+000 -1.000000e+000
    outer loop
      vertex  4.619398e-001  1.913417e-001  0.000000e+000
      vertex -4.619398e-001  1.913417e-001  0.000000e+000
      vertex -4.157348e-001  2.777851e-001  0.000000e+000
    endloop
  endfacet
  facet normal  0.000000e+000  0.000000e+000 -1.000000e+000
    outer loop
      vertex  4.619398e-001  1.913417e-001  0.000000e+000
      vertex -4.157348e-001  2.777851e-001  0.000000e+000
      vertex  4.157348e-001  2.777851e-001  0.000000e+000
    endloop
  endfacet
  facet normal  0.000000e+000  0.000000e+000 -1.000000e+000
    outer loop
      vertex  4.157348e-001  2.777851e-001  0.000000e+000
      vertex -4.157348e-001  2.777851e-001  0.000000e+000
      vertex -3.535534e-001  3.535534e-001  0.000000e+000
    endloop
  endfacet
  facet normal  0.000000e+000  0.000000e+000 -1.000000e+000
    outer loop
      vertex  4.157348e-001  2.777851e-001  0.000000e+000
      vertex -3.535534e-001  3.535534e-001  0.000000e+000
      vertex  3.535534e-001  3.535534e-001  0.000000e+000
    endloop
  endfacet
  facet normal  0.000000e+000  0.000000e+000 -1.000000e+000
    outer loop
      vertex  3.535534e-001  3.535534e-001  0.000000e+000
      vertex -3.535534e-001  3.535534e-001  0.000000e+000
      vertex -2.777851e-001  4.157348e-001  0.000000e+000
    endloop
  endfacet
  facet normal  0.000000e+000  0.000000e+000 -1.000000e+000
    outer loop
      vertex  3.535534e-001  3.535534e-001  0.000000e+000
      vertex -2.777851e-001  4.157348e-001  0.000000e+000
      vertex  2.777851e-001  4.157348e-001  0.000000e+000
    endloop
  endfacet
  facet normal  0.000000e+000  0.000000e+000 -9.999999e-001
    outer loop
      vertex  2.777851e-001  4.157348e-001  0.000000e+000
      vertex -2.777851e-001  4.157348e-001  0.000000e+000
      vertex -1.913417e-001  4.619398e-001  0.000000e+000
    endloop
  endfacet
  facet normal  0.000000e+000  0.000000e+000 -1.000000e+000
    outer loop
      vertex  2.777851e-001  4.157348e-001  0.000000e+000
      vertex -1.913417e-001  4.619398e-001  0.000000e+000
      vertex  1.913417e-001  4.619398e-001  0.000000e+000
    endloop
  endfacet
  facet normal  0.000000e+000  0.000000e+000 -1.000000e+000
    outer loop
      vertex  1.913417e-001  4.619398e-001  0.000000e+000
      vertex -1.913417e-001  4.619398e-001  0.000000e+000
      vertex -9.754516e-002  4.903926e-001  0.000000e+000
    endloop
  endfacet
  facet normal  0.000000e+000  0.000000e+000 -1.000000e+000
    outer loop
      vertex  1.913417e-001  4.619398e-001  0.000000e+000
      vertex -9.754516e-002  4.903926e-001  0.000000e+000
      vertex  9.754516e-002  4.903926e-001  0.000000e+000
    endloop
  endfacet
  facet normal  9.951847e-001 -9.801729e-002  0.000000e+000
    outer loop
      vertex  5.000000e-001  0.000000e+000  0.000000e+000
      vertex  5.000000e-001  0.000000e+000  4.000000e+001
      vertex  4.903926e-001 -9.754516e-002  0.000000e+000
    endloop
  endfacet
  facet normal  9.951847e-001 -9.801729e-002  0.000000e+000
    outer loop
      vertex  4.903926e-001 -9.754516e-002  0.000000e+000
      vertex  5.000000e-001  0.000000e+000  4.000000e+001
      vertex  4.903926e-001 -9.754516e-002  4.000000e+001
    endloop
  endfacet
  facet normal  9.569404e-001 -2.902847e-001  0.000000e+000
    outer loop
      vertex  4.903926e-001 -9.754516e-002  0.000000e+000
      vertex  4.903926e-001 -9.754516e-002  4.000000e+001
      vertex  4.619398e-001 -1.913417e-001  0.000000e+000
    endloop
  endfacet
  facet normal  9.569404e-001 -2.902847e-001  0.000000e+000
    outer loop
      vertex  4.619398e-001 -1.913417e-001  0.000000e+000
      vertex  4.903926e-001 -9.754516e-002  4.000000e+001
      vertex  4.619398e-001 -1.913417e-001  4.000000e+001
    endloop
  endfacet
  facet normal  8.819214e-001 -4.713967e-001  0.000000e+000
    outer loop
      vertex  4.619398e-001 -1.913417e-001  0.000000e+000
      vertex  4.619398e-001 -1.913417e-001  4.000000e+001
      vertex  4.157348e-001 -2.777851e-001  0.000000e+000
    endloop
  endfacet
  facet normal  8.819214e-001 -4.713967e-001  0.000000e+000
    outer loop
      vertex  4.157348e-001 -2.777851e-001  0.000000e+000
      vertex  4.619398e-001 -1.913417e-001  4.000000e+001
      vertex  4.157348e-001 -2.777851e-001  4.000000e+001
    endloop
  endfacet
  facet normal  7.730104e-001 -6.343933e-001  0.000000e+000
    outer loop
      vertex  4.157348e-001 -2.777851e-001  0.000000e+000
      vertex  4.157348e-001 -2.777851e-001  4.000000e+001
      vertex  3.535534e-001 -3.535534e-001  0.000000e+000
    endloop
  endfacet
  facet normal  7.730104e-001 -6.343933e-001  0.000000e+000
    outer loop
      vertex  3.535534e-001 -3.535534e-001  0.000000e+000
      vertex  4.157348e-001 -2.777851e-001  4.000000e+001
      vertex  3.535534e-001 -3.535534e-001  4.000000e+001
    endloop
  endfacet
  facet normal  6.343933e-001 -7.730104e-001  0.000000e+000
    outer loop
      vertex  3.535534e-001 -3.535534e-001  0.000000e+000
      vertex  3.535534e-001 -3.535534e-001  4.000000e+001
      vertex  2.777851e-001 -4.157348e-001  0.000000e+000
    endloop
  endfacet
  facet normal  6.343933e-001 -7.730104e-001  0.000000e+000
    outer loop
      vertex  2.777851e-001 -4.157348e-001  0.000000e+000
      vertex  3.535534e-001 -3.535534e-001  4.000000e+001
      vertex  2.777851e-001 -4.157348e-001  4.000000e+001
    endloop
  endfacet
  facet normal  4.713967e-001 -8.819214e-001  0.000000e+000
    outer loop
      vertex  2.777851e-001 -4.157348e-001  0.000000e+000
      vertex  2.777851e-001 -4.157348e-001  4.000000e+001
      vertex  1.913417e-001 -4.619398e-001  0.000000e+000
    endloop
  endfacet
  facet normal  4.713967e-001 -8.819214e-001  0.000000e+000
    outer loop
      vertex  1.913417e-001 -4.619398e-001  0.000000e+000
      vertex  2.777851e-001 -4.157348e-001  4.000000e+001
      vertex  1.913417e-001 -4.619398e-001  4.000000e+001
    endloop
  endfacet
  facet normal  2.902847e-001 -9.569404e-001  0.000000e+000
    outer loop
      vertex  1.913417e-001 -4.619398e-001  0.000000e+000
      vertex  1.913417e-001 -4.619398e-001  4.000000e+001
      vertex  9.754516e-002 -4.903926e-001  0.000000e+000
    endloop
  endfacet
  facet normal  2.902847e-001 -9.569404e-001  0.000000e+000
    outer loop
      vertex  9.754516e-002 -4.903926e-001  0.000000e+000
      vertex  1.913417e-001 -4.619398e-001  4.000000e+001
      vertex  9.754516e-002 -4.903926e-001  4.000000e+001
    endloop
  endfacet
  facet normal  9.801729e-002 -9.951847e-001  0.000000e+000
    outer loop
      vertex  9.754516e-002 -4.903926e-001  0.000000e+000
      vertex  9.754516e-002 -4.903926e-001  4.000000e+001
      vertex -9.184851e-017 -5.000000e-001  0.000000e+000
    endloop
  endfacet
  facet normal  9.801729e-002 -9.951847e-001  0.000000e+000
    outer loop
      vertex -9.184851e-017 -5.000000e-001  0.000000e+000
      vertex  9.754516e-002 -4.903926e-001  4.000000e+001
      vertex -9.184851e-017 -5.000000e-001  4.000000e+001
    endloop
  endfacet
  facet normal -9.801729e-002 -9.951847e-001  -0.000000e+000
    outer loop
      vertex -9.184851e-017 -5.000000e-001  0.000000e+000
      vertex -9.184851e-017 -5.000000e-001  4.000000e+001
      vertex -9.754516e-002 -4.903926e-001  0.000000e+000
    endloop
  endfacet
  facet normal -9.801729e-002 -9.951847e-001  0.000000e+000
    outer loop
      vertex -9.754516e-002 -4.903926e-001  0.000000e+000
      vertex -9.184851e-017 -5.000000e-001  4.000000e+001
      vertex -9.754516e-002 -4.903926e-001  4.000000e+001
    endloop
  endfacet
  facet normal -2.902847e-001 -9.569404e-001  -0.000000e+000
    outer loop
      vertex -9.754516e-002 -4.903926e-001  0.000000e+000
      vertex -9.754516e-002 -4.903926e-001  4.000000e+001
      vertex -1.913417e-001 -4.619398e-001  0.000000e+000
    endloop
  endfacet
  facet normal -2.902847e-001 -9.569404e-001  0.000000e+000
    outer loop
      vertex -1.913417e-001 -4.619398e-001  0.000000e+000
      vertex -9.754516e-002 -4.903926e-001  4.000000e+001
      vertex -1.913417e-001 -4.619398e-001  4.000000e+001
    endloop
  endfacet
  facet normal -4.713967e-001 -8.819214e-001  -0.000000e+000
    outer loop
      vertex -1.913417e-001 -4.619398e-001  0.000000e+000
      vertex -1.913417e-001 -4.619398e-001  4.000000e+001
      vertex -2.777851e-001 -4.157348e-001  0.000000e+000
    endloop
  endfacet
  facet normal -4.713967e-001 -8.819214e-001  0.000000e+000
    outer loop
      vertex -2.777851e-001 -4.157348e-001  0.000000e+000
      vertex -1.913417e-001 -4.619398e-001  4.000000e+001
      vertex -2.777851e-001 -4.157348e-001  4.000000e+001
    endloop
  endfacet
  facet normal -6.343933e-001 -7.730104e-001  -0.000000e+000
    outer loop
      vertex -2.777851e-001 -4.157348e-001  0.000000e+000
      vertex -2.777851e-001 -4.157348e-001  4.000000e+001
      vertex -3.535534e-001 -3.535534e-001  0.000000e+000
    endloop
  endfacet
  facet normal -6.343933e-001 -7.730104e-001  0.000000e+000
    outer loop
      vertex -3.535534e-001 -3.535534e-001  0.000000e+000
      vertex -2.777851e-001 -4.157348e-001  4.000000e+001
      vertex -3.535534e-001 -3.535534e-001  4.000000e+001
    endloop
  endfacet
  facet normal -7.730104e-001 -6.343933e-001  -0.000000e+000
    outer loop
      vertex -3.535534e-001 -3.535534e-001  0.000000e+000
      vertex -3.535534e-001 -3.535534e-001  4.000000e+001
      vertex -4.157348e-001 -2.777851e-001  0.000000e+000
    endloop
  endfacet
  facet normal -7.730104e-001 -6.343933e-001  0.000000e+000
    outer loop
      vertex -4.157348e-001 -2.777851e-001  0.000000e+000
      vertex -3.535534e-001 -3.535534e-001  4.000000e+001
      vertex -4.157348e-001 -2.777851e-001  4.000000e+001
    endloop
  endfacet
  facet normal -8.819214e-001 -4.713967e-001  -0.000000e+000
    outer loop
      vertex -4.157348e-001 -2.777851e-001  0.000000e+000
      vertex -4.157348e-001 -2.777851e-001  4.000000e+001
      vertex -4.619398e-001 -1.913417e-001  0.000000e+000
    endloop
  endfacet
  facet normal -8.819214e-001 -4.713967e-001  0.000000e+000
    outer loop
      vertex -4.619398e-001 -1.913417e-001  0.000000e+000
      vertex -4.157348e-001 -2.777851e-001  4.000000e+001
      vertex -4.619398e-001 -1.913417e-001  4.000000e+001
    endloop
  endfacet
  facet normal -9.569404e-001 -2.902847e-001  -0.000000e+000
    outer loop
      vertex -4.619398e-001 -1.913417e-001  0.000000e+000
      vertex -4.619398e-001 -1.913417e-001  4.000000e+001
      vertex -4.903926e-001 -9.754516e-002  0.000000e+000
    endloop
  endfacet
  facet normal -9.569404e-001 -2.902847e-001  0.000000e+000
    outer loop
      vertex -4.903926e-001 -9.754516e-002  0.000000e+000
      vertex -4.619398e-001 -1.913417e-001  4.000000e+001
      vertex -4.903926e-001 -9.754516e-002  4.000000e+001
    endloop
  endfacet
  facet normal -9.951847e-001 -9.801729e-002  -0.000000e+000
    outer loop
      vertex -4.903926e-001 -9.754516e-002  0.000000e+000
      vertex -4.903926e-001 -9.754516e-002  4.000000e+001
      vertex -5.000000e-001  6.123234e-017  0.000000e+000
    endloop
  endfacet
  facet normal -9.951847e-001 -9.801729e-002  0.000000e+000
    outer loop
      vertex -5.000000e-001  6.123234e-017  0.000000e+000
      vertex -4.903926e-001 -9.754516e-002  4.000000e+001
      vertex -5.000000e-001  6.123234e-017  4.000000e+001
    endloop
  endfacet
  facet normal -9.951847e-001  9.801729e-002  0.000000e+000
    outer loop
      vertex -5.000000e-001  6.123234e-017  0.000000e+000
      vertex -5.000000e-001  6.123234e-017  4.000000e+001
      vertex -4.903926e-001  9.754516e-002  0.000000e+000
    endloop
  endfacet
  facet normal -9.951847e-001  9.801729e-002  0.000000e+000
    outer loop
      vertex -4.903926e-001  9.754516e-002  0.000000e+000
      vertex -5.000000e-001  6.123234e-017  4.000000e+001
      vertex -4.903926e-001  9.754516e-002  4.000000e+001
    endloop
  endfacet
  facet normal -9.569404e-001  2.902847e-001  0.000000e+000
    outer loop
      vertex -4.903926e-001  9.754516e-002  0.000000e+000
      vertex -4.903926e-001  9.754516e-002  4.000000e+001
      vertex -4.619398e-001  1.913417e-001  0.000000e+000
    endloop
  endfacet
  facet normal -9.569404e-001  2.902847e-001  0.000000e+000
    outer loop
      vertex -4.619398e-001  1.913417e-001  0.000000e+000
      vertex -4.903926e-001  9.754516e-002  4.000000e+001
      vertex -4.619398e-001  1.913417e-001  4.000000e+001
    endloop
  endfacet
  facet normal -8.819214e-001  4.713967e-001  0.000000e+000
    outer loop
      vertex -4.619398e-001  1.913417e-001  0.000000e+000
      vertex -4.619398e-001  1.913417e-001  4.000000e+001
      vertex -4.157348e-001  2.777851e-001  0.000000e+000
    endloop
  endfacet
  facet normal -8.819214e-001  4.713967e-001  0.000000e+000
    outer loop
      vertex -4.157348e-001  2.777851e-001  0.000000e+000
      vertex -4.619398e-001  1.913417e-001  4.000000e+001
      vertex -4.157348e-001  2.777851e-001  4.000000e+001
    endloop
  endfacet
  facet normal -7.730104e-001  6.343933e-001  0.000000e+000
    outer loop
      vertex -4.157348e-001  2.777851e-001  0.000000e+000
      vertex -4.157348e-001  2.777851e-001  4.000000e+001
      vertex -3.535534e-001  3.535534e-001  0.000000e+000
    endloop
  endfacet
  facet normal -7.730104e-001  6.343933e-001  0.000000e+000
    outer loop
      vertex -3.535534e-001  3.535534e-001  0.000000e+000
      vertex -4.157348e-001  2.777851e-001  4.000000e+001
      vertex -3.535534e-001  3.535534e-001  4.000000e+001
    endloop
  endfacet
  facet normal -6.343933e-001  7.730104e-001  0.000000e+000
    outer loop
      vertex -3.535534e-001  3.535534e-001  0.000000e+000
      vertex -3.535534e-001  3.535534e-001  4.000000e+001
      vertex -2.777851e-001  4.157348e-001  0.000000e+000
    endloop
  endfacet
  facet normal -6.343933e-001  7.730104e-001  0.000000e+000
    outer loop
      vertex -2.777851e-001  4.157348e-001  0.000000e+000
      vertex -3.535534e-001  3.535534e-001  4.000000e+001
      vertex -2.777851e-001  4.157348e-001  4.000000e+001
    endloop
  endfacet
  facet normal -4.713967e-001  8.819214e-001  0.000000e+000
    outer loop
      vertex -2.777851e-001  4.157348e-001  0.000000e+000
      vertex -2.777851e-001  4.157348e-001  4.000000e+001
      vertex -1.913417e-001  4.619398e-001  0.000000e+000
    endloop
  endfacet
  facet normal -4.713967e-001  8.819214e-001  0.000000e+000
    outer loop
      vertex -1.913417e-001  4.619398e-001  0.000000e+000
      vertex -2.777851e-001  4.157348e-001  4.000000e+001
      vertex -1.913417e-001  4.619398e-001  4.000000e+001
    endloop
  endfacet
  facet normal -2.902847e-001  9.569404e-001  0.000000e+000
    outer loop
      vertex -1.913417e-001  4.619398e-001  0.000000e+000
      vertex -1.913417e-001  4.619398e-001  4.000000e+001
      vertex -9.754516e-002  4.903926e-001  0.000000e+000
    endloop
  endfacet
  facet normal -2.902847e-001  9.569404e-001  0.000000e+000
    outer loop
      vertex -9.754516e-002  4.903926e-001  0.000000e+000
      vertex -1.913417e-001  4.619398e-001  4.000000e+001
      vertex -9.754516e-002  4.903926e-001  4.000000e+001
    endloop
  endfacet
  facet normal -9.801729e-002  9.951847e-001  0.000000e+000
    outer loop
      vertex -9.754516e-002  4.903926e-001  0.000000e+000
      vertex -9.754516e-002  4.903926e-001  4.000000e+001
      vertex  3.061617e-017  5.000000e-001  0.000000e+000
    endloop
  endfacet
  facet normal -9.801729e-002  9.951847e-001  0.000000e+000
    outer loop
      vertex  3.061617e-017  5.000000e-001  0.000000e+000
      vertex -9.754516e-002  4.903926e-001  4.000000e+001
      vertex  3.061617e-017  5.000000e-001  4.000000e+001
    endloop
  endfacet
  facet normal  9.801729e-002  9.951847e-001  0.000000e+000
    outer loop
      vertex  3.061617e-017  5.000000e-001  0.000000e+000
      vertex  3.061617e-017  5.000000e-001  4.000000e+001
      vertex  9.754516e-002  4.903926e-001  0.000000e+000
    endloop
  endfacet
  facet normal  9.801729e-002  9.951847e-001  -0.000000e+000
    outer loop
      vertex  9.754516e-002  4.903926e-001  0.000000e+000
      vertex  3.061617e-017  5.000000e-001  4.000000e+001
      vertex  9.754516e-002  4.903926e-001  4.000000e+001
    endloop
  endfacet
  facet normal  2.902847e-001  9.569404e-001  0.000000e+000
    outer loop
      vertex  9.754516e-002  4.903926e-001  0.000000e+000
      vertex  9.754516e-002  4.903926e-001  4.000000e+001
      vertex  1.913417e-001  4.619398e-001  0.000000e+000
    endloop
  endfacet
  facet normal  2.902847e-001  9.569404e-001  -0.000000e+000
    outer loop
      vertex  1.913417e-001  4.619398e-001  0.000000e+000
      vertex  9.754516e-002  4.903926e-001  4.000000e+001
      vertex  1.913417e-001  4.619398e-001  4.000000e+001
    endloop
  endfacet
  facet normal  4.713967e-001  8.819214e-001  0.000000e+000
    outer loop
      vertex  1.913417e-001  4.619398e-001  0.000000e+000
      vertex  1.913417e-001  4.619398e-001  4.000000e+001
      vertex  2.777851e-001  4.157348e-001  0.000000e+000
    endloop
  endfacet
  facet normal  4.713967e-001  8.819214e-001  -0.000000e+000
    outer loop
      vertex  2.777851e-001  4.157348e-001  0.000000e+000
      vertex  1.913417e-001  4.619398e-001  4.000000e+001
      vertex  2.777851e-001  4.157348e-001  4.000000e+001
    endloop
  endfacet
  facet normal  6.343933e-001  7.730104e-001  0.000000e+000
    outer loop
      vertex  2.777851e-001  4.157348e-001  0.000000e+000
      vertex  2.777851e-001  4.157348e-001  4.000000e+001
      vertex  3.535534e-001  3.535534e-001  0.000000e+000
    endloop
  endfacet
  facet normal  6.343933e-001  7.730104e-001  -0.000000e+000
    outer loop
      vertex  3.535534e-001  3.535534e-001  0.000000e+000
      vertex  2.777851e-001  4.157348e-001  4.000000e+001
      vertex  3.535534e-001  3.535534e-001  4.000000e+001
    endloop
  endfacet
  facet normal  7.730104e-001  6.343933e-001  0.000000e+000
    outer loop
      vertex  3.535534e-001  3.535534e-001  0.000000e+000
      vertex  3.535534e-001  3.535534e-001  4.000000e+001
      vertex  4.157348e-001  2.777851e-001  0.000000e+000
    endloop
  endfacet
  facet normal  7.730104e-001  6.343933e-001  -0.000000e+000
    outer loop
      vertex  4.157348e-001  2.777851e-001  0.000000e+000
      vertex  3.535534e-001  3.535534e-001  4.000000e+001
      vertex  4.157348e-001  2.777851e-001  4.000000e+001
    endloop
  endfacet
  facet normal  8.819214e-001  4.713967e-001  0.000000e+000
    outer loop
      vertex  4.157348e-001  2.777851e-001  0.000000e+000
      vertex  4.157348e-001  2.777851e-001  4.000000e+001
      vertex  4.619398e-001  1.913417e-001  0.000000e+000
    endloop
  endfacet
  facet normal  8.819214e-001  4.713967e-001  -0.000000e+000
    outer loop
      vertex  4.619398e-001  1.913417e-001  0.000000e+000
      vertex  4.157348e-001  2.777851e-001  4.000000e+001
      vertex  4.619398e-001  1.913417e-001  4.000000e+001
    endloop
  endfacet
  facet normal  9.569404e-001  2.902847e-001  0.000000e+000
    outer loop
      vertex  4.619398e-001  1.913417e-001  0.000000e+000
      vertex  4.619398e-001  1.913417e-001  4.000000e+001
      vertex  4.903926e-001  9.754516e-002  0.000000e+000
    endloop
  endfacet
  facet normal  9.569404e-001  2.902847e-001  -0.000000e+000
    outer loop
      vertex  4.903926e-001  9.754516e-002  0.000000e+000
      vertex  4.619398e-001  1.913417e-001  4.000000e+001
      vertex  4.903926e-001  9.754516e-002  4.000000e+001
    endloop
  endfacet
  facet normal  9.951847e-001  9.801729e-002  0.000000e+000
    outer loop
      vertex  4.903926e-001  9.754516e-002  0.000000e+000
      vertex  4.903926e-001  9.754516e-002  4.000000e+001
      vertex  5.000000e-001  0.000000e+000  0.000000e+000
    endloop
  endfacet
  facet normal  9.951847e-001  9.801729e-002  -0.000000e+000
    outer loop
      vertex  5.000000e-001  0.000000e+000  0.000000e+000
      vertex  4.903926e-001  9.754516e-002  4.000000e+001
      vertex  5.000000e-001  0.000000e+000  4.000000e+001
    endloop
  endfacet
endsolid CATIA STL
